<?xml version="1.0" encoding="utf-8" standalone="no"?>
<!DOCTYPE svg PUBLIC "-//W3C//DTD SVG 1.1//EN"
  "http://www.w3.org/Graphics/SVG/1.1/DTD/svg11.dtd">
<svg xmlns:xlink="http://www.w3.org/1999/xlink" width="494.28pt" height="284.542125pt" viewBox="0 0 494.28 284.542125" xmlns="http://www.w3.org/2000/svg" version="1.1">
 <metadata>
  <rdf:RDF xmlns:dc="http://purl.org/dc/elements/1.1/" xmlns:cc="http://creativecommons.org/ns#" xmlns:rdf="http://www.w3.org/1999/02/22-rdf-syntax-ns#">
   <cc:Work>
    <dc:type rdf:resource="http://purl.org/dc/dcmitype/StillImage"/>
    <dc:date>2026-09-29T15:48:33.140534</dc:date>
    <dc:format>image/svg+xml</dc:format>
    <dc:creator>
     <cc:Agent>
      <dc:title>Matplotlib v3.10.8, https://matplotlib.org/</dc:title>
     </cc:Agent>
    </dc:creator>
   </cc:Work>
  </rdf:RDF>
 </metadata>
 <defs>
  <style type="text/css">*{stroke-linejoin: round; stroke-linecap: butt}</style>
 </defs>
 <g id="figure_1">
  <g id="patch_1">
   <path d="M 0 284.542125 
L 494.28 284.542125 
L 494.28 0 
L 0 0 
z
" style="fill: #ffffff"/>
  </g>
  <g id="axes_1">
   <g id="patch_2">
    <path d="M 155.00304 66.522285 
L 339.27696 66.522285 
Q 345.03552 66.522285 345.03552 61.421805 
L 345.03552 34.219245 
Q 345.03552 29.118765 339.27696 29.118765 
L 155.00304 29.118765 
Q 149.24448 29.118765 149.24448 34.219245 
L 149.24448 61.421805 
Q 149.24448 66.522285 155.00304 66.522285 
z
" clip-path="url(#p1578824b47)" style="fill: #0f1e33"/>
   </g>
   <g id="patch_3">
    <path d="M 20.63664 143.029485 
L 97.41744 143.029485 
Q 103.176 143.029485 103.176 137.929005 
L 103.176 106.476045 
Q 103.176 101.375565 97.41744 101.375565 
L 20.63664 101.375565 
Q 14.87808 101.375565 14.87808 106.476045 
L 14.87808 137.929005 
Q 14.87808 143.029485 20.63664 143.029485 
z
" clip-path="url(#p1578824b47)" style="fill: #17a398"/>
   </g>
   <g id="patch_4">
    <path d="M 113.73336 143.029485 
L 190.51416 143.029485 
Q 196.27272 143.029485 196.27272 137.929005 
L 196.27272 106.476045 
Q 196.27272 101.375565 190.51416 101.375565 
L 113.73336 101.375565 
Q 107.9748 101.375565 107.9748 106.476045 
L 107.9748 137.929005 
Q 107.9748 143.029485 113.73336 143.029485 
z
" clip-path="url(#p1578824b47)" style="fill: #17a398"/>
   </g>
   <g id="patch_5">
    <path d="M 206.83008 143.029485 
L 283.61088 143.029485 
Q 289.36944 143.029485 289.36944 137.929005 
L 289.36944 106.476045 
Q 289.36944 101.375565 283.61088 101.375565 
L 206.83008 101.375565 
Q 201.07152 101.375565 201.07152 106.476045 
L 201.07152 137.929005 
Q 201.07152 143.029485 206.83008 143.029485 
z
" clip-path="url(#p1578824b47)" style="fill: #17a398"/>
   </g>
   <g id="patch_6">
    <path d="M 299.9268 143.029485 
L 376.7076 143.029485 
Q 382.46616 143.029485 382.46616 137.929005 
L 382.46616 106.476045 
Q 382.46616 101.375565 376.7076 101.375565 
L 299.9268 101.375565 
Q 294.16824 101.375565 294.16824 106.476045 
L 294.16824 137.929005 
Q 294.16824 143.029485 299.9268 143.029485 
z
" clip-path="url(#p1578824b47)" style="fill: #17a398"/>
   </g>
   <g id="patch_7">
    <path d="M 393.02352 143.029485 
L 469.80432 143.029485 
Q 475.56288 143.029485 475.56288 137.929005 
L 475.56288 106.476045 
Q 475.56288 101.375565 469.80432 101.375565 
L 393.02352 101.375565 
Q 387.26496 101.375565 387.26496 106.476045 
L 387.26496 137.929005 
Q 387.26496 143.029485 393.02352 143.029485 
z
" clip-path="url(#p1578824b47)" style="fill: #17a398"/>
   </g>
   <g id="patch_8">
    <path d="M 20.63664 219.536685 
L 97.41744 219.536685 
Q 103.176 219.536685 103.176 214.436205 
L 103.176 182.983245 
Q 103.176 177.882765 97.41744 177.882765 
L 20.63664 177.882765 
Q 14.87808 177.882765 14.87808 182.983245 
L 14.87808 214.436205 
Q 14.87808 219.536685 20.63664 219.536685 
z
" clip-path="url(#p1578824b47)" style="fill: #e8a33d"/>
   </g>
   <g id="patch_9">
    <path d="M 111.81384 219.536685 
L 188.59464 219.536685 
Q 194.3532 219.536685 194.3532 214.436205 
L 194.3532 182.983245 
Q 194.3532 177.882765 188.59464 177.882765 
L 111.81384 177.882765 
Q 106.05528 177.882765 106.05528 182.983245 
L 106.05528 214.436205 
Q 106.05528 219.536685 111.81384 219.536685 
z
" clip-path="url(#p1578824b47)" style="fill: #e8a33d"/>
   </g>
   <g id="patch_10">
    <path d="M 202.99104 219.536685 
L 279.77184 219.536685 
Q 285.5304 219.536685 285.5304 214.436205 
L 285.5304 182.983245 
Q 285.5304 177.882765 279.77184 177.882765 
L 202.99104 177.882765 
Q 197.23248 177.882765 197.23248 182.983245 
L 197.23248 214.436205 
Q 197.23248 219.536685 202.99104 219.536685 
z
" clip-path="url(#p1578824b47)" style="fill: #e8a33d"/>
   </g>
   <g id="patch_11">
    <path d="M 294.16824 219.536685 
L 370.94904 219.536685 
Q 376.7076 219.536685 376.7076 214.436205 
L 376.7076 182.983245 
Q 376.7076 177.882765 370.94904 177.882765 
L 294.16824 177.882765 
Q 288.40968 177.882765 288.40968 182.983245 
L 288.40968 214.436205 
Q 288.40968 219.536685 294.16824 219.536685 
z
" clip-path="url(#p1578824b47)" style="fill: #e8a33d"/>
   </g>
   <g id="patch_12">
    <path d="M 385.34544 219.536685 
L 462.12624 219.536685 
Q 467.8848 219.536685 467.8848 214.436205 
L 467.8848 182.983245 
Q 467.8848 177.882765 462.12624 177.882765 
L 385.34544 177.882765 
Q 379.58688 177.882765 379.58688 182.983245 
L 379.58688 214.436205 
Q 379.58688 219.536685 385.34544 219.536685 
z
" clip-path="url(#p1578824b47)" style="fill: #e8a33d"/>
   </g>
   <g id="patch_13">
    <path d="M 20.63664 270.541485 
L 468.84456 270.541485 
Q 474.60312 270.541485 474.60312 265.441005 
L 474.60312 242.488845 
Q 474.60312 237.388365 468.84456 237.388365 
L 20.63664 237.388365 
Q 14.87808 237.388365 14.87808 242.488845 
L 14.87808 265.441005 
Q 14.87808 270.541485 20.63664 270.541485 
z
" clip-path="url(#p1578824b47)" style="fill: #c4453b"/>
   </g>
   <g id="text_1">
    <!-- PRIMARY: Macro Scientific Success -->
    <g style="fill: #ffffff" transform="translate(158.911172 50.303962) scale(0.09 -0.09)">
     <defs>
      <path id="DejaVuSans-Bold-50" d="M 588 4666 
L 2584 4666 
Q 3475 4666 3951 4270 
Q 4428 3875 4428 3144 
Q 4428 2409 3951 2014 
Q 3475 1619 2584 1619 
L 1791 1619 
L 1791 0 
L 588 0 
L 588 4666 
z
M 1791 3794 
L 1791 2491 
L 2456 2491 
Q 2806 2491 2997 2661 
Q 3188 2831 3188 3144 
Q 3188 3456 2997 3625 
Q 2806 3794 2456 3794 
L 1791 3794 
z
" transform="scale(0.015625)"/>
      <path id="DejaVuSans-Bold-52" d="M 2297 2597 
Q 2675 2597 2839 2737 
Q 3003 2878 3003 3200 
Q 3003 3519 2839 3656 
Q 2675 3794 2297 3794 
L 1791 3794 
L 1791 2597 
L 2297 2597 
z
M 1791 1766 
L 1791 0 
L 588 0 
L 588 4666 
L 2425 4666 
Q 3347 4666 3776 4356 
Q 4206 4047 4206 3378 
Q 4206 2916 3982 2619 
Q 3759 2322 3309 2181 
Q 3556 2125 3751 1926 
Q 3947 1728 4147 1325 
L 4800 0 
L 3519 0 
L 2950 1159 
Q 2778 1509 2601 1637 
Q 2425 1766 2131 1766 
L 1791 1766 
z
" transform="scale(0.015625)"/>
      <path id="DejaVuSans-Bold-49" d="M 588 4666 
L 1791 4666 
L 1791 0 
L 588 0 
L 588 4666 
z
" transform="scale(0.015625)"/>
      <path id="DejaVuSans-Bold-4d" d="M 588 4666 
L 2119 4666 
L 3181 2169 
L 4250 4666 
L 5778 4666 
L 5778 0 
L 4641 0 
L 4641 3413 
L 3566 897 
L 2803 897 
L 1728 3413 
L 1728 0 
L 588 0 
L 588 4666 
z
" transform="scale(0.015625)"/>
      <path id="DejaVuSans-Bold-41" d="M 3419 850 
L 1538 850 
L 1241 0 
L 31 0 
L 1759 4666 
L 3194 4666 
L 4922 0 
L 3713 0 
L 3419 850 
z
M 1838 1716 
L 3116 1716 
L 2478 3572 
L 1838 1716 
z
" transform="scale(0.015625)"/>
      <path id="DejaVuSans-Bold-59" d="M -63 4666 
L 1253 4666 
L 2316 3003 
L 3378 4666 
L 4697 4666 
L 2919 1966 
L 2919 0 
L 1716 0 
L 1716 1966 
L -63 4666 
z
" transform="scale(0.015625)"/>
      <path id="DejaVuSans-Bold-3a" d="M 716 3500 
L 1844 3500 
L 1844 2291 
L 716 2291 
L 716 3500 
z
M 716 1209 
L 1844 1209 
L 1844 0 
L 716 0 
L 716 1209 
z
" transform="scale(0.015625)"/>
      <path id="DejaVuSans-Bold-20" transform="scale(0.015625)"/>
      <path id="DejaVuSans-Bold-61" d="M 2106 1575 
Q 1756 1575 1579 1456 
Q 1403 1338 1403 1106 
Q 1403 894 1545 773 
Q 1688 653 1941 653 
Q 2256 653 2472 879 
Q 2688 1106 2688 1447 
L 2688 1575 
L 2106 1575 
z
M 3816 1997 
L 3816 0 
L 2688 0 
L 2688 519 
Q 2463 200 2181 54 
Q 1900 -91 1497 -91 
Q 953 -91 614 226 
Q 275 544 275 1050 
Q 275 1666 698 1953 
Q 1122 2241 2028 2241 
L 2688 2241 
L 2688 2328 
Q 2688 2594 2478 2717 
Q 2269 2841 1825 2841 
Q 1466 2841 1156 2769 
Q 847 2697 581 2553 
L 581 3406 
Q 941 3494 1303 3539 
Q 1666 3584 2028 3584 
Q 2975 3584 3395 3211 
Q 3816 2838 3816 1997 
z
" transform="scale(0.015625)"/>
      <path id="DejaVuSans-Bold-63" d="M 3366 3391 
L 3366 2478 
Q 3138 2634 2908 2709 
Q 2678 2784 2431 2784 
Q 1963 2784 1702 2511 
Q 1441 2238 1441 1747 
Q 1441 1256 1702 982 
Q 1963 709 2431 709 
Q 2694 709 2930 787 
Q 3166 866 3366 1019 
L 3366 103 
Q 3103 6 2833 -42 
Q 2563 -91 2291 -91 
Q 1344 -91 809 395 
Q 275 881 275 1747 
Q 275 2613 809 3098 
Q 1344 3584 2291 3584 
Q 2566 3584 2833 3536 
Q 3100 3488 3366 3391 
z
" transform="scale(0.015625)"/>
      <path id="DejaVuSans-Bold-72" d="M 3138 2547 
Q 2991 2616 2845 2648 
Q 2700 2681 2553 2681 
Q 2122 2681 1889 2404 
Q 1656 2128 1656 1613 
L 1656 0 
L 538 0 
L 538 3500 
L 1656 3500 
L 1656 2925 
Q 1872 3269 2151 3426 
Q 2431 3584 2822 3584 
Q 2878 3584 2943 3579 
Q 3009 3575 3134 3559 
L 3138 2547 
z
" transform="scale(0.015625)"/>
      <path id="DejaVuSans-Bold-6f" d="M 2203 2784 
Q 1831 2784 1636 2517 
Q 1441 2250 1441 1747 
Q 1441 1244 1636 976 
Q 1831 709 2203 709 
Q 2569 709 2762 976 
Q 2956 1244 2956 1747 
Q 2956 2250 2762 2517 
Q 2569 2784 2203 2784 
z
M 2203 3584 
Q 3106 3584 3614 3096 
Q 4122 2609 4122 1747 
Q 4122 884 3614 396 
Q 3106 -91 2203 -91 
Q 1297 -91 786 396 
Q 275 884 275 1747 
Q 275 2609 786 3096 
Q 1297 3584 2203 3584 
z
" transform="scale(0.015625)"/>
      <path id="DejaVuSans-Bold-53" d="M 3834 4519 
L 3834 3531 
Q 3450 3703 3084 3790 
Q 2719 3878 2394 3878 
Q 1963 3878 1756 3759 
Q 1550 3641 1550 3391 
Q 1550 3203 1689 3098 
Q 1828 2994 2194 2919 
L 2706 2816 
Q 3484 2659 3812 2340 
Q 4141 2022 4141 1434 
Q 4141 663 3683 286 
Q 3225 -91 2284 -91 
Q 1841 -91 1394 -6 
Q 947 78 500 244 
L 500 1259 
Q 947 1022 1364 901 
Q 1781 781 2169 781 
Q 2563 781 2772 912 
Q 2981 1044 2981 1288 
Q 2981 1506 2839 1625 
Q 2697 1744 2272 1838 
L 1806 1941 
Q 1106 2091 782 2419 
Q 459 2747 459 3303 
Q 459 4000 909 4375 
Q 1359 4750 2203 4750 
Q 2588 4750 2994 4692 
Q 3400 4634 3834 4519 
z
" transform="scale(0.015625)"/>
      <path id="DejaVuSans-Bold-69" d="M 538 3500 
L 1656 3500 
L 1656 0 
L 538 0 
L 538 3500 
z
M 538 4863 
L 1656 4863 
L 1656 3950 
L 538 3950 
L 538 4863 
z
" transform="scale(0.015625)"/>
      <path id="DejaVuSans-Bold-65" d="M 4031 1759 
L 4031 1441 
L 1416 1441 
Q 1456 1047 1700 850 
Q 1944 653 2381 653 
Q 2734 653 3104 758 
Q 3475 863 3866 1075 
L 3866 213 
Q 3469 63 3072 -14 
Q 2675 -91 2278 -91 
Q 1328 -91 801 392 
Q 275 875 275 1747 
Q 275 2603 792 3093 
Q 1309 3584 2216 3584 
Q 3041 3584 3536 3087 
Q 4031 2591 4031 1759 
z
M 2881 2131 
Q 2881 2450 2695 2645 
Q 2509 2841 2209 2841 
Q 1884 2841 1681 2658 
Q 1478 2475 1428 2131 
L 2881 2131 
z
" transform="scale(0.015625)"/>
      <path id="DejaVuSans-Bold-6e" d="M 4056 2131 
L 4056 0 
L 2931 0 
L 2931 347 
L 2931 1631 
Q 2931 2084 2911 2256 
Q 2891 2428 2841 2509 
Q 2775 2619 2662 2680 
Q 2550 2741 2406 2741 
Q 2056 2741 1856 2470 
Q 1656 2200 1656 1722 
L 1656 0 
L 538 0 
L 538 3500 
L 1656 3500 
L 1656 2988 
Q 1909 3294 2193 3439 
Q 2478 3584 2822 3584 
Q 3428 3584 3742 3212 
Q 4056 2841 4056 2131 
z
" transform="scale(0.015625)"/>
      <path id="DejaVuSans-Bold-74" d="M 1759 4494 
L 1759 3500 
L 2913 3500 
L 2913 2700 
L 1759 2700 
L 1759 1216 
Q 1759 972 1856 886 
Q 1953 800 2241 800 
L 2816 800 
L 2816 0 
L 1856 0 
Q 1194 0 917 276 
Q 641 553 641 1216 
L 641 2700 
L 84 2700 
L 84 3500 
L 641 3500 
L 641 4494 
L 1759 4494 
z
" transform="scale(0.015625)"/>
      <path id="DejaVuSans-Bold-66" d="M 2841 4863 
L 2841 4128 
L 2222 4128 
Q 1984 4128 1890 4042 
Q 1797 3956 1797 3744 
L 1797 3500 
L 2753 3500 
L 2753 2700 
L 1797 2700 
L 1797 0 
L 678 0 
L 678 2700 
L 122 2700 
L 122 3500 
L 678 3500 
L 678 3744 
Q 678 4316 997 4589 
Q 1316 4863 1984 4863 
L 2841 4863 
z
" transform="scale(0.015625)"/>
      <path id="DejaVuSans-Bold-75" d="M 500 1363 
L 500 3500 
L 1625 3500 
L 1625 3150 
Q 1625 2866 1622 2436 
Q 1619 2006 1619 1863 
Q 1619 1441 1641 1255 
Q 1663 1069 1716 984 
Q 1784 875 1895 815 
Q 2006 756 2150 756 
Q 2500 756 2700 1025 
Q 2900 1294 2900 1772 
L 2900 3500 
L 4019 3500 
L 4019 0 
L 2900 0 
L 2900 506 
Q 2647 200 2364 54 
Q 2081 -91 1741 -91 
Q 1134 -91 817 281 
Q 500 653 500 1363 
z
" transform="scale(0.015625)"/>
      <path id="DejaVuSans-Bold-73" d="M 3272 3391 
L 3272 2541 
Q 2913 2691 2578 2766 
Q 2244 2841 1947 2841 
Q 1628 2841 1473 2761 
Q 1319 2681 1319 2516 
Q 1319 2381 1436 2309 
Q 1553 2238 1856 2203 
L 2053 2175 
Q 2913 2066 3209 1816 
Q 3506 1566 3506 1031 
Q 3506 472 3093 190 
Q 2681 -91 1863 -91 
Q 1516 -91 1145 -36 
Q 775 19 384 128 
L 384 978 
Q 719 816 1070 734 
Q 1422 653 1784 653 
Q 2113 653 2278 743 
Q 2444 834 2444 1013 
Q 2444 1163 2330 1236 
Q 2216 1309 1875 1350 
L 1678 1375 
Q 931 1469 631 1722 
Q 331 1975 331 2491 
Q 331 3047 712 3315 
Q 1094 3584 1881 3584 
Q 2191 3584 2531 3537 
Q 2872 3491 3272 3391 
z
" transform="scale(0.015625)"/>
     </defs>
     <use xlink:href="#DejaVuSans-Bold-50"/>
     <use xlink:href="#DejaVuSans-Bold-52" transform="translate(73.291016 0)"/>
     <use xlink:href="#DejaVuSans-Bold-49" transform="translate(150.292969 0)"/>
     <use xlink:href="#DejaVuSans-Bold-4d" transform="translate(187.5 0)"/>
     <use xlink:href="#DejaVuSans-Bold-41" transform="translate(287.011719 0)"/>
     <use xlink:href="#DejaVuSans-Bold-52" transform="translate(364.404297 0)"/>
     <use xlink:href="#DejaVuSans-Bold-59" transform="translate(435.90625 0)"/>
     <use xlink:href="#DejaVuSans-Bold-3a" transform="translate(499.568359 0)"/>
     <use xlink:href="#DejaVuSans-Bold-20" transform="translate(539.558594 0)"/>
     <use xlink:href="#DejaVuSans-Bold-4d" transform="translate(574.373047 0)"/>
     <use xlink:href="#DejaVuSans-Bold-61" transform="translate(673.884766 0)"/>
     <use xlink:href="#DejaVuSans-Bold-63" transform="translate(741.365234 0)"/>
     <use xlink:href="#DejaVuSans-Bold-72" transform="translate(800.642578 0)"/>
     <use xlink:href="#DejaVuSans-Bold-6f" transform="translate(849.958984 0)"/>
     <use xlink:href="#DejaVuSans-Bold-20" transform="translate(918.660156 0)"/>
     <use xlink:href="#DejaVuSans-Bold-53" transform="translate(953.474609 0)"/>
     <use xlink:href="#DejaVuSans-Bold-63" transform="translate(1025.496094 0)"/>
     <use xlink:href="#DejaVuSans-Bold-69" transform="translate(1084.773438 0)"/>
     <use xlink:href="#DejaVuSans-Bold-65" transform="translate(1119.050781 0)"/>
     <use xlink:href="#DejaVuSans-Bold-6e" transform="translate(1186.873047 0)"/>
     <use xlink:href="#DejaVuSans-Bold-74" transform="translate(1258.064453 0)"/>
     <use xlink:href="#DejaVuSans-Bold-69" transform="translate(1305.867188 0)"/>
     <use xlink:href="#DejaVuSans-Bold-66" transform="translate(1340.144531 0)"/>
     <use xlink:href="#DejaVuSans-Bold-69" transform="translate(1383.650391 0)"/>
     <use xlink:href="#DejaVuSans-Bold-63" transform="translate(1417.927734 0)"/>
     <use xlink:href="#DejaVuSans-Bold-20" transform="translate(1477.205078 0)"/>
     <use xlink:href="#DejaVuSans-Bold-53" transform="translate(1512.019531 0)"/>
     <use xlink:href="#DejaVuSans-Bold-75" transform="translate(1584.041016 0)"/>
     <use xlink:href="#DejaVuSans-Bold-63" transform="translate(1655.232422 0)"/>
     <use xlink:href="#DejaVuSans-Bold-63" transform="translate(1714.509766 0)"/>
     <use xlink:href="#DejaVuSans-Bold-65" transform="translate(1773.787109 0)"/>
     <use xlink:href="#DejaVuSans-Bold-73" transform="translate(1841.609375 0)"/>
     <use xlink:href="#DejaVuSans-Bold-73" transform="translate(1901.130859 0)"/>
    </g>
   </g>
   <g id="text_2">
    <!-- Evidence- -->
    <g style="fill: #ffffff" transform="translate(34.412743 119.269861) scale(0.09 -0.09)">
     <defs>
      <path id="DejaVuSans-Bold-45" d="M 588 4666 
L 3834 4666 
L 3834 3756 
L 1791 3756 
L 1791 2888 
L 3713 2888 
L 3713 1978 
L 1791 1978 
L 1791 909 
L 3903 909 
L 3903 0 
L 588 0 
L 588 4666 
z
" transform="scale(0.015625)"/>
      <path id="DejaVuSans-Bold-76" d="M 97 3500 
L 1216 3500 
L 2088 1081 
L 2956 3500 
L 4078 3500 
L 2700 0 
L 1472 0 
L 97 3500 
z
" transform="scale(0.015625)"/>
      <path id="DejaVuSans-Bold-64" d="M 2919 2988 
L 2919 4863 
L 4044 4863 
L 4044 0 
L 2919 0 
L 2919 506 
Q 2688 197 2409 53 
Q 2131 -91 1766 -91 
Q 1119 -91 703 423 
Q 288 938 288 1747 
Q 288 2556 703 3070 
Q 1119 3584 1766 3584 
Q 2128 3584 2408 3439 
Q 2688 3294 2919 2988 
z
M 2181 722 
Q 2541 722 2730 984 
Q 2919 1247 2919 1747 
Q 2919 2247 2730 2509 
Q 2541 2772 2181 2772 
Q 1825 2772 1636 2509 
Q 1447 2247 1447 1747 
Q 1447 1247 1636 984 
Q 1825 722 2181 722 
z
" transform="scale(0.015625)"/>
      <path id="DejaVuSans-Bold-2d" d="M 347 2297 
L 2309 2297 
L 2309 1388 
L 347 1388 
L 347 2297 
z
" transform="scale(0.015625)"/>
     </defs>
     <use xlink:href="#DejaVuSans-Bold-45"/>
     <use xlink:href="#DejaVuSans-Bold-76" transform="translate(68.310547 0)"/>
     <use xlink:href="#DejaVuSans-Bold-69" transform="translate(133.496094 0)"/>
     <use xlink:href="#DejaVuSans-Bold-64" transform="translate(167.773438 0)"/>
     <use xlink:href="#DejaVuSans-Bold-65" transform="translate(239.355469 0)"/>
     <use xlink:href="#DejaVuSans-Bold-6e" transform="translate(307.177734 0)"/>
     <use xlink:href="#DejaVuSans-Bold-63" transform="translate(378.369141 0)"/>
     <use xlink:href="#DejaVuSans-Bold-65" transform="translate(437.646484 0)"/>
     <use xlink:href="#DejaVuSans-Bold-2d" transform="translate(505.46875 0)"/>
    </g>
    <!-- grounded -->
    <g style="fill: #ffffff" transform="translate(34.594149 130.031752) scale(0.09 -0.09)">
     <defs>
      <path id="DejaVuSans-Bold-67" d="M 2919 594 
Q 2688 288 2409 144 
Q 2131 0 1766 0 
Q 1125 0 706 504 
Q 288 1009 288 1791 
Q 288 2575 706 3076 
Q 1125 3578 1766 3578 
Q 2131 3578 2409 3434 
Q 2688 3291 2919 2981 
L 2919 3500 
L 4044 3500 
L 4044 353 
Q 4044 -491 3511 -936 
Q 2978 -1381 1966 -1381 
Q 1638 -1381 1331 -1331 
Q 1025 -1281 716 -1178 
L 716 -306 
Q 1009 -475 1290 -558 
Q 1572 -641 1856 -641 
Q 2406 -641 2662 -400 
Q 2919 -159 2919 353 
L 2919 594 
z
M 2181 2772 
Q 1834 2772 1640 2515 
Q 1447 2259 1447 1791 
Q 1447 1309 1634 1061 
Q 1822 813 2181 813 
Q 2531 813 2725 1069 
Q 2919 1325 2919 1791 
Q 2919 2259 2725 2515 
Q 2531 2772 2181 2772 
z
" transform="scale(0.015625)"/>
     </defs>
     <use xlink:href="#DejaVuSans-Bold-67"/>
     <use xlink:href="#DejaVuSans-Bold-72" transform="translate(71.582031 0)"/>
     <use xlink:href="#DejaVuSans-Bold-6f" transform="translate(120.898438 0)"/>
     <use xlink:href="#DejaVuSans-Bold-75" transform="translate(189.599609 0)"/>
     <use xlink:href="#DejaVuSans-Bold-6e" transform="translate(260.791016 0)"/>
     <use xlink:href="#DejaVuSans-Bold-64" transform="translate(331.982422 0)"/>
     <use xlink:href="#DejaVuSans-Bold-65" transform="translate(403.564453 0)"/>
     <use xlink:href="#DejaVuSans-Bold-64" transform="translate(471.386719 0)"/>
    </g>
   </g>
   <g id="patch_14">
    <path d="M 245.178113 65.223129 
Q 153.561594 83.949294 61.945076 102.675459 
" style="fill: none; stroke: #4a5768; stroke-width: 0.9; stroke-linecap: round"/>
   </g>
   <g id="text_3">
    <!-- Partial -->
    <g style="fill: #ffffff" transform="translate(135.414698 119.305017) scale(0.09 -0.09)">
     <defs>
      <path id="DejaVuSans-Bold-6c" d="M 538 4863 
L 1656 4863 
L 1656 0 
L 538 0 
L 538 4863 
z
" transform="scale(0.015625)"/>
     </defs>
     <use xlink:href="#DejaVuSans-Bold-50"/>
     <use xlink:href="#DejaVuSans-Bold-61" transform="translate(70.666016 0)"/>
     <use xlink:href="#DejaVuSans-Bold-72" transform="translate(138.146484 0)"/>
     <use xlink:href="#DejaVuSans-Bold-74" transform="translate(187.462891 0)"/>
     <use xlink:href="#DejaVuSans-Bold-69" transform="translate(235.265625 0)"/>
     <use xlink:href="#DejaVuSans-Bold-61" transform="translate(269.542969 0)"/>
     <use xlink:href="#DejaVuSans-Bold-6c" transform="translate(337.023438 0)"/>
    </g>
    <!-- score -->
    <g style="fill: #ffffff" transform="translate(138.414932 130.066908) scale(0.09 -0.09)">
     <use xlink:href="#DejaVuSans-Bold-73"/>
     <use xlink:href="#DejaVuSans-Bold-63" transform="translate(59.521484 0)"/>
     <use xlink:href="#DejaVuSans-Bold-6f" transform="translate(118.798828 0)"/>
     <use xlink:href="#DejaVuSans-Bold-72" transform="translate(187.5 0)"/>
     <use xlink:href="#DejaVuSans-Bold-65" transform="translate(236.816406 0)"/>
    </g>
   </g>
   <g id="patch_15">
    <path d="M 245.288607 65.575103 
Q 200.113236 83.948325 154.937864 102.321547 
" style="fill: none; stroke: #4a5768; stroke-width: 0.9; stroke-linecap: round"/>
   </g>
   <g id="text_4">
    <!-- Evidence -->
    <g style="fill: #ffffff" transform="translate(222.473683 119.269861) scale(0.09 -0.09)">
     <use xlink:href="#DejaVuSans-Bold-45"/>
     <use xlink:href="#DejaVuSans-Bold-76" transform="translate(68.310547 0)"/>
     <use xlink:href="#DejaVuSans-Bold-69" transform="translate(133.496094 0)"/>
     <use xlink:href="#DejaVuSans-Bold-64" transform="translate(167.773438 0)"/>
     <use xlink:href="#DejaVuSans-Bold-65" transform="translate(239.355469 0)"/>
     <use xlink:href="#DejaVuSans-Bold-6e" transform="translate(307.177734 0)"/>
     <use xlink:href="#DejaVuSans-Bold-63" transform="translate(378.369141 0)"/>
     <use xlink:href="#DejaVuSans-Bold-65" transform="translate(437.646484 0)"/>
    </g>
    <!-- quality -->
    <g style="fill: #ffffff" transform="translate(227.589621 130.031752) scale(0.09 -0.09)">
     <defs>
      <path id="DejaVuSans-Bold-71" d="M 2181 2772 
Q 1825 2772 1636 2509 
Q 1447 2247 1447 1747 
Q 1447 1247 1636 984 
Q 1825 722 2181 722 
Q 2541 722 2730 984 
Q 2919 1247 2919 1747 
Q 2919 2247 2730 2509 
Q 2541 2772 2181 2772 
z
M 2919 506 
Q 2688 197 2409 53 
Q 2131 -91 1766 -91 
Q 1119 -91 703 423 
Q 288 938 288 1747 
Q 288 2556 703 3067 
Q 1119 3578 1766 3578 
Q 2131 3578 2409 3434 
Q 2688 3291 2919 2981 
L 2919 3500 
L 4044 3500 
L 4044 -1331 
L 2919 -1331 
L 2919 506 
z
" transform="scale(0.015625)"/>
      <path id="DejaVuSans-Bold-79" d="M 78 3500 
L 1197 3500 
L 2138 1125 
L 2938 3500 
L 4056 3500 
L 2584 -331 
Q 2363 -916 2067 -1148 
Q 1772 -1381 1288 -1381 
L 641 -1381 
L 641 -647 
L 991 -647 
Q 1275 -647 1404 -556 
Q 1534 -466 1606 -231 
L 1638 -134 
L 78 3500 
z
" transform="scale(0.015625)"/>
     </defs>
     <use xlink:href="#DejaVuSans-Bold-71"/>
     <use xlink:href="#DejaVuSans-Bold-75" transform="translate(71.582031 0)"/>
     <use xlink:href="#DejaVuSans-Bold-61" transform="translate(142.773438 0)"/>
     <use xlink:href="#DejaVuSans-Bold-6c" transform="translate(210.253906 0)"/>
     <use xlink:href="#DejaVuSans-Bold-69" transform="translate(244.53125 0)"/>
     <use xlink:href="#DejaVuSans-Bold-74" transform="translate(278.808594 0)"/>
     <use xlink:href="#DejaVuSans-Bold-79" transform="translate(326.611328 0)"/>
    </g>
   </g>
   <g id="patch_16">
    <path d="M 247.089739 66.825396 
Q 246.660025 83.952703 246.230311 101.08001 
" style="fill: none; stroke: #4a5768; stroke-width: 0.9; stroke-linecap: round"/>
   </g>
   <g id="text_5">
    <!-- Abstention -->
    <g style="fill: #ffffff" transform="translate(310.540247 119.269861) scale(0.09 -0.09)">
     <defs>
      <path id="DejaVuSans-Bold-62" d="M 2400 722 
Q 2759 722 2948 984 
Q 3138 1247 3138 1747 
Q 3138 2247 2948 2509 
Q 2759 2772 2400 2772 
Q 2041 2772 1848 2508 
Q 1656 2244 1656 1747 
Q 1656 1250 1848 986 
Q 2041 722 2400 722 
z
M 1656 2988 
Q 1888 3294 2169 3439 
Q 2450 3584 2816 3584 
Q 3463 3584 3878 3070 
Q 4294 2556 4294 1747 
Q 4294 938 3878 423 
Q 3463 -91 2816 -91 
Q 2450 -91 2169 54 
Q 1888 200 1656 506 
L 1656 0 
L 538 0 
L 538 4863 
L 1656 4863 
L 1656 2988 
z
" transform="scale(0.015625)"/>
     </defs>
     <use xlink:href="#DejaVuSans-Bold-41"/>
     <use xlink:href="#DejaVuSans-Bold-62" transform="translate(77.392578 0)"/>
     <use xlink:href="#DejaVuSans-Bold-73" transform="translate(148.974609 0)"/>
     <use xlink:href="#DejaVuSans-Bold-74" transform="translate(208.496094 0)"/>
     <use xlink:href="#DejaVuSans-Bold-65" transform="translate(256.298828 0)"/>
     <use xlink:href="#DejaVuSans-Bold-6e" transform="translate(324.121094 0)"/>
     <use xlink:href="#DejaVuSans-Bold-74" transform="translate(395.3125 0)"/>
     <use xlink:href="#DejaVuSans-Bold-69" transform="translate(443.115234 0)"/>
     <use xlink:href="#DejaVuSans-Bold-6f" transform="translate(477.392578 0)"/>
     <use xlink:href="#DejaVuSans-Bold-6e" transform="translate(546.09375 0)"/>
    </g>
    <!-- quality -->
    <g style="fill: #ffffff" transform="translate(320.686341 130.031752) scale(0.09 -0.09)">
     <use xlink:href="#DejaVuSans-Bold-71"/>
     <use xlink:href="#DejaVuSans-Bold-75" transform="translate(71.582031 0)"/>
     <use xlink:href="#DejaVuSans-Bold-61" transform="translate(142.773438 0)"/>
     <use xlink:href="#DejaVuSans-Bold-6c" transform="translate(210.253906 0)"/>
     <use xlink:href="#DejaVuSans-Bold-69" transform="translate(244.53125 0)"/>
     <use xlink:href="#DejaVuSans-Bold-74" transform="translate(278.808594 0)"/>
     <use xlink:href="#DejaVuSans-Bold-79" transform="translate(326.611328 0)"/>
    </g>
   </g>
   <g id="patch_17">
    <path d="M 248.987351 65.589112 
Q 293.207712 83.948606 337.428073 102.308101 
" style="fill: none; stroke: #4a5768; stroke-width: 0.9; stroke-linecap: round"/>
   </g>
   <g id="text_6">
    <!-- Tool -->
    <g style="fill: #ffffff" transform="translate(421.214389 119.305017) scale(0.09 -0.09)">
     <defs>
      <path id="DejaVuSans-Bold-54" d="M 31 4666 
L 4331 4666 
L 4331 3756 
L 2784 3756 
L 2784 0 
L 1581 0 
L 1581 3756 
L 31 3756 
L 31 4666 
z
" transform="scale(0.015625)"/>
     </defs>
     <use xlink:href="#DejaVuSans-Bold-54"/>
     <use xlink:href="#DejaVuSans-Bold-6f" transform="translate(54.962891 0)"/>
     <use xlink:href="#DejaVuSans-Bold-6f" transform="translate(123.664062 0)"/>
     <use xlink:href="#DejaVuSans-Bold-6c" transform="translate(192.365234 0)"/>
    </g>
    <!-- performance -->
    <g style="fill: #ffffff" transform="translate(399.004076 130.066908) scale(0.09 -0.09)">
     <defs>
      <path id="DejaVuSans-Bold-70" d="M 1656 506 
L 1656 -1331 
L 538 -1331 
L 538 3500 
L 1656 3500 
L 1656 2988 
Q 1888 3294 2169 3439 
Q 2450 3584 2816 3584 
Q 3463 3584 3878 3070 
Q 4294 2556 4294 1747 
Q 4294 938 3878 423 
Q 3463 -91 2816 -91 
Q 2450 -91 2169 54 
Q 1888 200 1656 506 
z
M 2400 2772 
Q 2041 2772 1848 2508 
Q 1656 2244 1656 1747 
Q 1656 1250 1848 986 
Q 2041 722 2400 722 
Q 2759 722 2948 984 
Q 3138 1247 3138 1747 
Q 3138 2247 2948 2509 
Q 2759 2772 2400 2772 
z
" transform="scale(0.015625)"/>
      <path id="DejaVuSans-Bold-6d" d="M 3781 2919 
Q 3994 3244 4286 3414 
Q 4578 3584 4928 3584 
Q 5531 3584 5847 3212 
Q 6163 2841 6163 2131 
L 6163 0 
L 5038 0 
L 5038 1825 
Q 5041 1866 5042 1909 
Q 5044 1953 5044 2034 
Q 5044 2406 4934 2573 
Q 4825 2741 4581 2741 
Q 4263 2741 4089 2478 
Q 3916 2216 3909 1719 
L 3909 0 
L 2784 0 
L 2784 1825 
Q 2784 2406 2684 2573 
Q 2584 2741 2328 2741 
Q 2006 2741 1831 2477 
Q 1656 2213 1656 1722 
L 1656 0 
L 531 0 
L 531 3500 
L 1656 3500 
L 1656 2988 
Q 1863 3284 2130 3434 
Q 2397 3584 2719 3584 
Q 3081 3584 3359 3409 
Q 3638 3234 3781 2919 
z
" transform="scale(0.015625)"/>
     </defs>
     <use xlink:href="#DejaVuSans-Bold-70"/>
     <use xlink:href="#DejaVuSans-Bold-65" transform="translate(71.582031 0)"/>
     <use xlink:href="#DejaVuSans-Bold-72" transform="translate(139.404297 0)"/>
     <use xlink:href="#DejaVuSans-Bold-66" transform="translate(188.720703 0)"/>
     <use xlink:href="#DejaVuSans-Bold-6f" transform="translate(232.226562 0)"/>
     <use xlink:href="#DejaVuSans-Bold-72" transform="translate(300.927734 0)"/>
     <use xlink:href="#DejaVuSans-Bold-6d" transform="translate(350.244141 0)"/>
     <use xlink:href="#DejaVuSans-Bold-61" transform="translate(454.443359 0)"/>
     <use xlink:href="#DejaVuSans-Bold-6e" transform="translate(521.923828 0)"/>
     <use xlink:href="#DejaVuSans-Bold-63" transform="translate(593.115234 0)"/>
     <use xlink:href="#DejaVuSans-Bold-65" transform="translate(652.392578 0)"/>
    </g>
   </g>
   <g id="patch_18">
    <path d="M 249.098724 65.226632 
Q 339.75601 83.948754 430.413296 102.670876 
" style="fill: none; stroke: #4a5768; stroke-width: 0.9; stroke-linecap: round"/>
   </g>
   <g id="text_7">
    <!-- Stage -->
    <g style="fill: #ffffff" transform="translate(44.325399 195.741905) scale(0.09 -0.09)">
     <use xlink:href="#DejaVuSans-Bold-53"/>
     <use xlink:href="#DejaVuSans-Bold-74" transform="translate(72.021484 0)"/>
     <use xlink:href="#DejaVuSans-Bold-61" transform="translate(119.824219 0)"/>
     <use xlink:href="#DejaVuSans-Bold-67" transform="translate(187.304688 0)"/>
     <use xlink:href="#DejaVuSans-Bold-65" transform="translate(258.886719 0)"/>
    </g>
    <!-- success -->
    <g style="fill: #ffffff" transform="translate(39.401415 206.574108) scale(0.09 -0.09)">
     <use xlink:href="#DejaVuSans-Bold-73"/>
     <use xlink:href="#DejaVuSans-Bold-75" transform="translate(59.521484 0)"/>
     <use xlink:href="#DejaVuSans-Bold-63" transform="translate(130.712891 0)"/>
     <use xlink:href="#DejaVuSans-Bold-63" transform="translate(189.990234 0)"/>
     <use xlink:href="#DejaVuSans-Bold-65" transform="translate(249.267578 0)"/>
     <use xlink:href="#DejaVuSans-Bold-73" transform="translate(317.089844 0)"/>
     <use xlink:href="#DejaVuSans-Bold-73" transform="translate(376.611328 0)"/>
    </g>
   </g>
   <g id="text_8">
    <!-- Completion -->
    <g style="fill: #ffffff" transform="translate(121.316349 201.193162) scale(0.09 -0.09)">
     <defs>
      <path id="DejaVuSans-Bold-43" d="M 4288 256 
Q 3956 84 3597 -3 
Q 3238 -91 2847 -91 
Q 1681 -91 1000 561 
Q 319 1213 319 2328 
Q 319 3447 1000 4098 
Q 1681 4750 2847 4750 
Q 3238 4750 3597 4662 
Q 3956 4575 4288 4403 
L 4288 3438 
Q 3953 3666 3628 3772 
Q 3303 3878 2944 3878 
Q 2300 3878 1931 3465 
Q 1563 3053 1563 2328 
Q 1563 1606 1931 1193 
Q 2300 781 2944 781 
Q 3303 781 3628 887 
Q 3953 994 4288 1222 
L 4288 256 
z
" transform="scale(0.015625)"/>
     </defs>
     <use xlink:href="#DejaVuSans-Bold-43"/>
     <use xlink:href="#DejaVuSans-Bold-6f" transform="translate(73.388672 0)"/>
     <use xlink:href="#DejaVuSans-Bold-6d" transform="translate(142.089844 0)"/>
     <use xlink:href="#DejaVuSans-Bold-70" transform="translate(246.289062 0)"/>
     <use xlink:href="#DejaVuSans-Bold-6c" transform="translate(317.871094 0)"/>
     <use xlink:href="#DejaVuSans-Bold-65" transform="translate(352.148438 0)"/>
     <use xlink:href="#DejaVuSans-Bold-74" transform="translate(419.970703 0)"/>
     <use xlink:href="#DejaVuSans-Bold-69" transform="translate(467.773438 0)"/>
     <use xlink:href="#DejaVuSans-Bold-6f" transform="translate(502.050781 0)"/>
     <use xlink:href="#DejaVuSans-Bold-6e" transform="translate(570.751953 0)"/>
    </g>
   </g>
   <g id="text_9">
    <!-- Valid -->
    <g style="fill: #ffffff" transform="translate(228.803237 195.812217) scale(0.09 -0.09)">
     <defs>
      <path id="DejaVuSans-Bold-56" d="M 31 4666 
L 1241 4666 
L 2478 1222 
L 3713 4666 
L 4922 4666 
L 3194 0 
L 1759 0 
L 31 4666 
z
" transform="scale(0.015625)"/>
     </defs>
     <use xlink:href="#DejaVuSans-Bold-56"/>
     <use xlink:href="#DejaVuSans-Bold-61" transform="translate(71.892578 0)"/>
     <use xlink:href="#DejaVuSans-Bold-6c" transform="translate(139.373047 0)"/>
     <use xlink:href="#DejaVuSans-Bold-69" transform="translate(173.650391 0)"/>
     <use xlink:href="#DejaVuSans-Bold-64" transform="translate(207.927734 0)"/>
    </g>
    <!-- completion -->
    <g style="fill: #ffffff" transform="translate(213.128471 206.574108) scale(0.09 -0.09)">
     <use xlink:href="#DejaVuSans-Bold-63"/>
     <use xlink:href="#DejaVuSans-Bold-6f" transform="translate(59.277344 0)"/>
     <use xlink:href="#DejaVuSans-Bold-6d" transform="translate(127.978516 0)"/>
     <use xlink:href="#DejaVuSans-Bold-70" transform="translate(232.177734 0)"/>
     <use xlink:href="#DejaVuSans-Bold-6c" transform="translate(303.759766 0)"/>
     <use xlink:href="#DejaVuSans-Bold-65" transform="translate(338.037109 0)"/>
     <use xlink:href="#DejaVuSans-Bold-74" transform="translate(405.859375 0)"/>
     <use xlink:href="#DejaVuSans-Bold-69" transform="translate(453.662109 0)"/>
     <use xlink:href="#DejaVuSans-Bold-6f" transform="translate(487.939453 0)"/>
     <use xlink:href="#DejaVuSans-Bold-6e" transform="translate(556.640625 0)"/>
    </g>
   </g>
   <g id="text_10">
    <!-- First -->
    <g style="fill: #ffffff" transform="translate(320.893796 195.812217) scale(0.09 -0.09)">
     <defs>
      <path id="DejaVuSans-Bold-46" d="M 588 4666 
L 3834 4666 
L 3834 3756 
L 1791 3756 
L 1791 2888 
L 3713 2888 
L 3713 1978 
L 1791 1978 
L 1791 0 
L 588 0 
L 588 4666 
z
" transform="scale(0.015625)"/>
     </defs>
     <use xlink:href="#DejaVuSans-Bold-46"/>
     <use xlink:href="#DejaVuSans-Bold-69" transform="translate(68.310547 0)"/>
     <use xlink:href="#DejaVuSans-Bold-72" transform="translate(102.587891 0)"/>
     <use xlink:href="#DejaVuSans-Bold-73" transform="translate(151.904297 0)"/>
     <use xlink:href="#DejaVuSans-Bold-74" transform="translate(211.425781 0)"/>
    </g>
    <!-- failure -->
    <g style="fill: #ffffff" transform="translate(316.004265 206.574108) scale(0.09 -0.09)">
     <use xlink:href="#DejaVuSans-Bold-66"/>
     <use xlink:href="#DejaVuSans-Bold-61" transform="translate(43.505859 0)"/>
     <use xlink:href="#DejaVuSans-Bold-69" transform="translate(110.986328 0)"/>
     <use xlink:href="#DejaVuSans-Bold-6c" transform="translate(145.263672 0)"/>
     <use xlink:href="#DejaVuSans-Bold-75" transform="translate(179.541016 0)"/>
     <use xlink:href="#DejaVuSans-Bold-72" transform="translate(250.732422 0)"/>
     <use xlink:href="#DejaVuSans-Bold-65" transform="translate(300.048828 0)"/>
    </g>
   </g>
   <g id="text_11">
    <!-- Error -->
    <g style="fill: #ffffff" transform="translate(410.912949 195.777061) scale(0.09 -0.09)">
     <use xlink:href="#DejaVuSans-Bold-45"/>
     <use xlink:href="#DejaVuSans-Bold-72" transform="translate(68.310547 0)"/>
     <use xlink:href="#DejaVuSans-Bold-72" transform="translate(117.626953 0)"/>
     <use xlink:href="#DejaVuSans-Bold-6f" transform="translate(166.943359 0)"/>
     <use xlink:href="#DejaVuSans-Bold-72" transform="translate(235.644531 0)"/>
    </g>
    <!-- propagation -->
    <g style="fill: #ffffff" transform="translate(392.699903 206.538952) scale(0.09 -0.09)">
     <use xlink:href="#DejaVuSans-Bold-70"/>
     <use xlink:href="#DejaVuSans-Bold-72" transform="translate(71.582031 0)"/>
     <use xlink:href="#DejaVuSans-Bold-6f" transform="translate(120.898438 0)"/>
     <use xlink:href="#DejaVuSans-Bold-70" transform="translate(189.599609 0)"/>
     <use xlink:href="#DejaVuSans-Bold-61" transform="translate(261.181641 0)"/>
     <use xlink:href="#DejaVuSans-Bold-67" transform="translate(328.662109 0)"/>
     <use xlink:href="#DejaVuSans-Bold-61" transform="translate(400.244141 0)"/>
     <use xlink:href="#DejaVuSans-Bold-74" transform="translate(467.724609 0)"/>
     <use xlink:href="#DejaVuSans-Bold-69" transform="translate(515.527344 0)"/>
     <use xlink:href="#DejaVuSans-Bold-6f" transform="translate(549.804688 0)"/>
     <use xlink:href="#DejaVuSans-Bold-6e" transform="translate(618.505859 0)"/>
    </g>
   </g>
   <g id="text_12">
    <!-- End-to-end + failure-injection + reproducibility endpoints -->
    <g style="fill: #ffffff" transform="translate(98.258569 256.413206) scale(0.09 -0.09)">
     <defs>
      <path id="DejaVuSans-Bold-2b" d="M 3053 4013 
L 3053 2375 
L 4684 2375 
L 4684 1638 
L 3053 1638 
L 3053 0 
L 2309 0 
L 2309 1638 
L 678 1638 
L 678 2375 
L 2309 2375 
L 2309 4013 
L 3053 4013 
z
" transform="scale(0.015625)"/>
      <path id="DejaVuSans-Bold-6a" d="M 538 3500 
L 1656 3500 
L 1656 63 
Q 1656 -641 1318 -1011 
Q 981 -1381 341 -1381 
L -213 -1381 
L -213 -647 
L -19 -647 
Q 300 -647 419 -503 
Q 538 -359 538 63 
L 538 3500 
z
M 538 4863 
L 1656 4863 
L 1656 3950 
L 538 3950 
L 538 4863 
z
" transform="scale(0.015625)"/>
     </defs>
     <use xlink:href="#DejaVuSans-Bold-45"/>
     <use xlink:href="#DejaVuSans-Bold-6e" transform="translate(68.310547 0)"/>
     <use xlink:href="#DejaVuSans-Bold-64" transform="translate(139.501953 0)"/>
     <use xlink:href="#DejaVuSans-Bold-2d" transform="translate(211.083984 0)"/>
     <use xlink:href="#DejaVuSans-Bold-74" transform="translate(252.587891 0)"/>
     <use xlink:href="#DejaVuSans-Bold-6f" transform="translate(300.390625 0)"/>
     <use xlink:href="#DejaVuSans-Bold-2d" transform="translate(369.091797 0)"/>
     <use xlink:href="#DejaVuSans-Bold-65" transform="translate(410.595703 0)"/>
     <use xlink:href="#DejaVuSans-Bold-6e" transform="translate(478.417969 0)"/>
     <use xlink:href="#DejaVuSans-Bold-64" transform="translate(549.609375 0)"/>
     <use xlink:href="#DejaVuSans-Bold-20" transform="translate(621.191406 0)"/>
     <use xlink:href="#DejaVuSans-Bold-2b" transform="translate(656.005859 0)"/>
     <use xlink:href="#DejaVuSans-Bold-20" transform="translate(739.794922 0)"/>
     <use xlink:href="#DejaVuSans-Bold-66" transform="translate(774.609375 0)"/>
     <use xlink:href="#DejaVuSans-Bold-61" transform="translate(818.115234 0)"/>
     <use xlink:href="#DejaVuSans-Bold-69" transform="translate(885.595703 0)"/>
     <use xlink:href="#DejaVuSans-Bold-6c" transform="translate(919.873047 0)"/>
     <use xlink:href="#DejaVuSans-Bold-75" transform="translate(954.150391 0)"/>
     <use xlink:href="#DejaVuSans-Bold-72" transform="translate(1025.341797 0)"/>
     <use xlink:href="#DejaVuSans-Bold-65" transform="translate(1074.658203 0)"/>
     <use xlink:href="#DejaVuSans-Bold-2d" transform="translate(1142.480469 0)"/>
     <use xlink:href="#DejaVuSans-Bold-69" transform="translate(1183.984375 0)"/>
     <use xlink:href="#DejaVuSans-Bold-6e" transform="translate(1218.261719 0)"/>
     <use xlink:href="#DejaVuSans-Bold-6a" transform="translate(1289.453125 0)"/>
     <use xlink:href="#DejaVuSans-Bold-65" transform="translate(1323.730469 0)"/>
     <use xlink:href="#DejaVuSans-Bold-63" transform="translate(1391.552734 0)"/>
     <use xlink:href="#DejaVuSans-Bold-74" transform="translate(1450.830078 0)"/>
     <use xlink:href="#DejaVuSans-Bold-69" transform="translate(1498.632812 0)"/>
     <use xlink:href="#DejaVuSans-Bold-6f" transform="translate(1532.910156 0)"/>
     <use xlink:href="#DejaVuSans-Bold-6e" transform="translate(1601.611328 0)"/>
     <use xlink:href="#DejaVuSans-Bold-20" transform="translate(1672.802734 0)"/>
     <use xlink:href="#DejaVuSans-Bold-2b" transform="translate(1707.617188 0)"/>
     <use xlink:href="#DejaVuSans-Bold-20" transform="translate(1791.40625 0)"/>
     <use xlink:href="#DejaVuSans-Bold-72" transform="translate(1826.220703 0)"/>
     <use xlink:href="#DejaVuSans-Bold-65" transform="translate(1875.537109 0)"/>
     <use xlink:href="#DejaVuSans-Bold-70" transform="translate(1943.359375 0)"/>
     <use xlink:href="#DejaVuSans-Bold-72" transform="translate(2014.941406 0)"/>
     <use xlink:href="#DejaVuSans-Bold-6f" transform="translate(2064.257812 0)"/>
     <use xlink:href="#DejaVuSans-Bold-64" transform="translate(2132.958984 0)"/>
     <use xlink:href="#DejaVuSans-Bold-75" transform="translate(2204.541016 0)"/>
     <use xlink:href="#DejaVuSans-Bold-63" transform="translate(2275.732422 0)"/>
     <use xlink:href="#DejaVuSans-Bold-69" transform="translate(2335.009766 0)"/>
     <use xlink:href="#DejaVuSans-Bold-62" transform="translate(2369.287109 0)"/>
     <use xlink:href="#DejaVuSans-Bold-69" transform="translate(2440.869141 0)"/>
     <use xlink:href="#DejaVuSans-Bold-6c" transform="translate(2475.146484 0)"/>
     <use xlink:href="#DejaVuSans-Bold-69" transform="translate(2509.423828 0)"/>
     <use xlink:href="#DejaVuSans-Bold-74" transform="translate(2543.701172 0)"/>
     <use xlink:href="#DejaVuSans-Bold-79" transform="translate(2591.503906 0)"/>
     <use xlink:href="#DejaVuSans-Bold-20" transform="translate(2656.689453 0)"/>
     <use xlink:href="#DejaVuSans-Bold-65" transform="translate(2691.503906 0)"/>
     <use xlink:href="#DejaVuSans-Bold-6e" transform="translate(2759.326172 0)"/>
     <use xlink:href="#DejaVuSans-Bold-64" transform="translate(2830.517578 0)"/>
     <use xlink:href="#DejaVuSans-Bold-70" transform="translate(2902.099609 0)"/>
     <use xlink:href="#DejaVuSans-Bold-6f" transform="translate(2973.681641 0)"/>
     <use xlink:href="#DejaVuSans-Bold-69" transform="translate(3042.382812 0)"/>
     <use xlink:href="#DejaVuSans-Bold-6e" transform="translate(3076.660156 0)"/>
     <use xlink:href="#DejaVuSans-Bold-74" transform="translate(3147.851562 0)"/>
     <use xlink:href="#DejaVuSans-Bold-73" transform="translate(3195.654297 0)"/>
    </g>
   </g>
   <g id="text_13">
    <!-- Pre-registered endpoint hierarchy -->
    <g style="fill: #0f1e33" transform="translate(131.4825 16.318125) scale(0.12 -0.12)">
     <defs>
      <path id="DejaVuSans-Bold-68" d="M 4056 2131 
L 4056 0 
L 2931 0 
L 2931 347 
L 2931 1625 
Q 2931 2084 2911 2256 
Q 2891 2428 2841 2509 
Q 2775 2619 2662 2680 
Q 2550 2741 2406 2741 
Q 2056 2741 1856 2470 
Q 1656 2200 1656 1722 
L 1656 0 
L 538 0 
L 538 4863 
L 1656 4863 
L 1656 2988 
Q 1909 3294 2193 3439 
Q 2478 3584 2822 3584 
Q 3428 3584 3742 3212 
Q 4056 2841 4056 2131 
z
" transform="scale(0.015625)"/>
     </defs>
     <use xlink:href="#DejaVuSans-Bold-50"/>
     <use xlink:href="#DejaVuSans-Bold-72" transform="translate(73.291016 0)"/>
     <use xlink:href="#DejaVuSans-Bold-65" transform="translate(122.607422 0)"/>
     <use xlink:href="#DejaVuSans-Bold-2d" transform="translate(190.429688 0)"/>
     <use xlink:href="#DejaVuSans-Bold-72" transform="translate(231.933594 0)"/>
     <use xlink:href="#DejaVuSans-Bold-65" transform="translate(281.25 0)"/>
     <use xlink:href="#DejaVuSans-Bold-67" transform="translate(349.072266 0)"/>
     <use xlink:href="#DejaVuSans-Bold-69" transform="translate(420.654297 0)"/>
     <use xlink:href="#DejaVuSans-Bold-73" transform="translate(454.931641 0)"/>
     <use xlink:href="#DejaVuSans-Bold-74" transform="translate(514.453125 0)"/>
     <use xlink:href="#DejaVuSans-Bold-65" transform="translate(562.255859 0)"/>
     <use xlink:href="#DejaVuSans-Bold-72" transform="translate(630.078125 0)"/>
     <use xlink:href="#DejaVuSans-Bold-65" transform="translate(679.394531 0)"/>
     <use xlink:href="#DejaVuSans-Bold-64" transform="translate(747.216797 0)"/>
     <use xlink:href="#DejaVuSans-Bold-20" transform="translate(818.798828 0)"/>
     <use xlink:href="#DejaVuSans-Bold-65" transform="translate(853.613281 0)"/>
     <use xlink:href="#DejaVuSans-Bold-6e" transform="translate(921.435547 0)"/>
     <use xlink:href="#DejaVuSans-Bold-64" transform="translate(992.626953 0)"/>
     <use xlink:href="#DejaVuSans-Bold-70" transform="translate(1064.208984 0)"/>
     <use xlink:href="#DejaVuSans-Bold-6f" transform="translate(1135.791016 0)"/>
     <use xlink:href="#DejaVuSans-Bold-69" transform="translate(1204.492188 0)"/>
     <use xlink:href="#DejaVuSans-Bold-6e" transform="translate(1238.769531 0)"/>
     <use xlink:href="#DejaVuSans-Bold-74" transform="translate(1309.960938 0)"/>
     <use xlink:href="#DejaVuSans-Bold-20" transform="translate(1357.763672 0)"/>
     <use xlink:href="#DejaVuSans-Bold-68" transform="translate(1392.578125 0)"/>
     <use xlink:href="#DejaVuSans-Bold-69" transform="translate(1463.769531 0)"/>
     <use xlink:href="#DejaVuSans-Bold-65" transform="translate(1498.046875 0)"/>
     <use xlink:href="#DejaVuSans-Bold-72" transform="translate(1565.869141 0)"/>
     <use xlink:href="#DejaVuSans-Bold-61" transform="translate(1615.185547 0)"/>
     <use xlink:href="#DejaVuSans-Bold-72" transform="translate(1682.666016 0)"/>
     <use xlink:href="#DejaVuSans-Bold-63" transform="translate(1731.982422 0)"/>
     <use xlink:href="#DejaVuSans-Bold-68" transform="translate(1791.259766 0)"/>
     <use xlink:href="#DejaVuSans-Bold-79" transform="translate(1862.451172 0)"/>
    </g>
   </g>
  </g>
 </g>
 <defs>
  <clipPath id="p1578824b47">
   <rect x="7.2" y="22.318125" width="479.88" height="255.024"/>
  </clipPath>
 </defs>
</svg>
