
<svg xmlns="http://www.w3.org/2000/svg" width="3200" height="1800" viewBox="0 0 3200 1800">
<defs>
  <filter id="shadow" x="-20%" y="-20%" width="140%" height="140%"><feDropShadow dx="0" dy="12" stdDeviation="18" flood-color="#17324D" flood-opacity="0.10"/></filter>
  <linearGradient id="gradBlue" x1="0" y1="0" x2="1" y2="1"><stop offset="0" stop-color="#3977D3"/><stop offset="1" stop-color="#42B7C8"/></linearGradient>
  <linearGradient id="gradPurple" x1="0" y1="0" x2="1" y2="1"><stop offset="0" stop-color="#7564D8"/><stop offset="1" stop-color="#42B7C8"/></linearGradient>
</defs>
<rect width="3200" height="1800" fill="#F7FAFC"/>
<circle cx="3000" cy="-100" r="520" fill="#EAF2FC" opacity="0.8"/>
<circle cx="3180" cy="130" r="280" fill="#F0EDFC" opacity="0.9"/>
<text x="160" y="132" font-family="Arial, Helvetica, sans-serif" font-size="30" font-weight="800" fill="#3977D3" text-anchor="start" letter-spacing="4">AGENTIC WORKFLOW</text>
<text x="160" y="225" font-family="Arial, Helvetica, sans-serif" font-size="72" font-weight="800" fill="#10243E" text-anchor="start" >The 23-node workflow separates design into six auditable phases</text>
<text x="160" y="285" font-family="Arial, Helvetica, sans-serif" font-size="34" font-weight="500" fill="#64748B" text-anchor="start" >Every node reads and updates one shared WorkflowState.</text>
<rect x="160" y="380" width="420" height="1120" rx="36" fill="#EAF2FC" stroke="none" stroke-width="0" /><circle cx="222" cy="442" r="34" fill="#3977D3" stroke="none" stroke-width="0"/><text x="222" y="456" font-family="Arial, Helvetica, sans-serif" font-size="32" font-weight="800" fill="#fff" text-anchor="middle" >1</text><text x="276" y="454" font-family="Arial, Helvetica, sans-serif" font-size="40" font-weight="800" fill="#10243E" text-anchor="start" >Intent</text><circle cx="224" cy="530" r="8" fill="#3977D3" stroke="none" stroke-width="0"/><text x="250" y="542" font-family="Arial, Helvetica, sans-serif" font-size="29" font-weight="600" fill="#21354D" text-anchor="start" >Supervisor</text><circle cx="224" cy="602" r="8" fill="#3977D3" stroke="none" stroke-width="0"/><text x="250" y="614" font-family="Arial, Helvetica, sans-serif" font-size="29" font-weight="600" fill="#21354D" text-anchor="start" >Design planner</text><circle cx="224" cy="674" r="8" fill="#3977D3" stroke="none" stroke-width="0"/><text x="250" y="686" font-family="Arial, Helvetica, sans-serif" font-size="29" font-weight="600" fill="#21354D" text-anchor="start" >Safety precheck</text><rect x="660" y="380" width="420" height="1120" rx="36" fill="#E7F6F3" stroke="none" stroke-width="0" /><circle cx="722" cy="442" r="34" fill="#1F9D8A" stroke="none" stroke-width="0"/><text x="722" y="456" font-family="Arial, Helvetica, sans-serif" font-size="32" font-weight="800" fill="#fff" text-anchor="middle" >2</text><text x="776" y="454" font-family="Arial, Helvetica, sans-serif" font-size="40" font-weight="800" fill="#10243E" text-anchor="start" >Evidence</text><circle cx="724" cy="530" r="8" fill="#1F9D8A" stroke="none" stroke-width="0"/><text x="750" y="542" font-family="Arial, Helvetica, sans-serif" font-size="29" font-weight="600" fill="#21354D" text-anchor="start" >Target resolver</text><circle cx="724" cy="602" r="8" fill="#1F9D8A" stroke="none" stroke-width="0"/><text x="750" y="614" font-family="Arial, Helvetica, sans-serif" font-size="29" font-weight="600" fill="#21354D" text-anchor="start" >Binder retrieval</text><circle cx="724" cy="674" r="8" fill="#1F9D8A" stroke="none" stroke-width="0"/><text x="750" y="686" font-family="Arial, Helvetica, sans-serif" font-size="29" font-weight="600" fill="#21354D" text-anchor="start" >Warhead selection</text><circle cx="724" cy="746" r="8" fill="#1F9D8A" stroke="none" stroke-width="0"/><text x="750" y="758" font-family="Arial, Helvetica, sans-serif" font-size="29" font-weight="600" fill="#21354D" text-anchor="start" >E3 selection</text><rect x="1160" y="380" width="420" height="1120" rx="36" fill="#F0EDFC" stroke="none" stroke-width="0" /><circle cx="1222" cy="442" r="34" fill="#7564D8" stroke="none" stroke-width="0"/><text x="1222" y="456" font-family="Arial, Helvetica, sans-serif" font-size="32" font-weight="800" fill="#fff" text-anchor="middle" >3</text><text x="1276" y="454" font-family="Arial, Helvetica, sans-serif" font-size="40" font-weight="800" fill="#10243E" text-anchor="start" >Build</text><circle cx="1224" cy="530" r="8" fill="#7564D8" stroke="none" stroke-width="0"/><text x="1250" y="542" font-family="Arial, Helvetica, sans-serif" font-size="29" font-weight="600" fill="#21354D" text-anchor="start" >Exit vectors</text><circle cx="1224" cy="602" r="8" fill="#7564D8" stroke="none" stroke-width="0"/><text x="1250" y="614" font-family="Arial, Helvetica, sans-serif" font-size="29" font-weight="600" fill="#21354D" text-anchor="start" >Linker generation</text><circle cx="1224" cy="674" r="8" fill="#7564D8" stroke="none" stroke-width="0"/><text x="1250" y="686" font-family="Arial, Helvetica, sans-serif" font-size="29" font-weight="600" fill="#21354D" text-anchor="start" >Construction</text><circle cx="1224" cy="746" r="8" fill="#7564D8" stroke="none" stroke-width="0"/><text x="1250" y="758" font-family="Arial, Helvetica, sans-serif" font-size="29" font-weight="600" fill="#21354D" text-anchor="start" >Validation</text><rect x="1660" y="380" width="420" height="1120" rx="36" fill="#FCEDEA" stroke="none" stroke-width="0" /><circle cx="1722" cy="442" r="34" fill="#E97968" stroke="none" stroke-width="0"/><text x="1722" y="456" font-family="Arial, Helvetica, sans-serif" font-size="32" font-weight="800" fill="#fff" text-anchor="middle" >4</text><text x="1776" y="454" font-family="Arial, Helvetica, sans-serif" font-size="40" font-weight="800" fill="#10243E" text-anchor="start" >Predict</text><circle cx="1724" cy="530" r="8" fill="#E97968" stroke="none" stroke-width="0"/><text x="1750" y="542" font-family="Arial, Helvetica, sans-serif" font-size="29" font-weight="600" fill="#21354D" text-anchor="start" >Degradation</text><circle cx="1724" cy="602" r="8" fill="#E97968" stroke="none" stroke-width="0"/><text x="1750" y="614" font-family="Arial, Helvetica, sans-serif" font-size="29" font-weight="600" fill="#21354D" text-anchor="start" >ADMET</text><circle cx="1724" cy="674" r="8" fill="#E97968" stroke="none" stroke-width="0"/><text x="1750" y="686" font-family="Arial, Helvetica, sans-serif" font-size="29" font-weight="600" fill="#21354D" text-anchor="start" >Novelty</text><circle cx="1724" cy="746" r="8" fill="#E97968" stroke="none" stroke-width="0"/><text x="1750" y="758" font-family="Arial, Helvetica, sans-serif" font-size="29" font-weight="600" fill="#21354D" text-anchor="start" >Applicability domain</text><rect x="2160" y="380" width="420" height="1120" rx="36" fill="#FFF4DC" stroke="none" stroke-width="0" /><circle cx="2222" cy="442" r="34" fill="#E9A63A" stroke="none" stroke-width="0"/><text x="2222" y="456" font-family="Arial, Helvetica, sans-serif" font-size="32" font-weight="800" fill="#fff" text-anchor="middle" >5</text><text x="2276" y="454" font-family="Arial, Helvetica, sans-serif" font-size="40" font-weight="800" fill="#10243E" text-anchor="start" >Improve</text><circle cx="2224" cy="530" r="8" fill="#E9A63A" stroke="none" stroke-width="0"/><text x="2250" y="542" font-family="Arial, Helvetica, sans-serif" font-size="29" font-weight="600" fill="#21354D" text-anchor="start" >Initial ranking</text><circle cx="2224" cy="602" r="8" fill="#E9A63A" stroke="none" stroke-width="0"/><text x="2250" y="614" font-family="Arial, Helvetica, sans-serif" font-size="29" font-weight="600" fill="#21354D" text-anchor="start" >Diversity</text><circle cx="2224" cy="674" r="8" fill="#E9A63A" stroke="none" stroke-width="0"/><text x="2250" y="686" font-family="Arial, Helvetica, sans-serif" font-size="29" font-weight="600" fill="#21354D" text-anchor="start" >Reflection</text><circle cx="2224" cy="746" r="8" fill="#E9A63A" stroke="none" stroke-width="0"/><text x="2250" y="758" font-family="Arial, Helvetica, sans-serif" font-size="29" font-weight="600" fill="#21354D" text-anchor="start" >Evolution</text><rect x="2660" y="380" width="380" height="1120" rx="36" fill="#EAF7EE" stroke="none" stroke-width="0" /><circle cx="2722" cy="442" r="34" fill="#41A66A" stroke="none" stroke-width="0"/><text x="2722" y="456" font-family="Arial, Helvetica, sans-serif" font-size="32" font-weight="800" fill="#fff" text-anchor="middle" >6</text><text x="2776" y="454" font-family="Arial, Helvetica, sans-serif" font-size="40" font-weight="800" fill="#10243E" text-anchor="start" >Decide</text><circle cx="2724" cy="530" r="8" fill="#41A66A" stroke="none" stroke-width="0"/><text x="2750" y="542" font-family="Arial, Helvetica, sans-serif" font-size="29" font-weight="600" fill="#21354D" text-anchor="start" >Ternary feasibility</text><circle cx="2724" cy="602" r="8" fill="#41A66A" stroke="none" stroke-width="0"/><text x="2750" y="614" font-family="Arial, Helvetica, sans-serif" font-size="29" font-weight="600" fill="#21354D" text-anchor="start" >Final ranking</text><circle cx="2724" cy="674" r="8" fill="#41A66A" stroke="none" stroke-width="0"/><text x="2750" y="686" font-family="Arial, Helvetica, sans-serif" font-size="29" font-weight="600" fill="#21354D" text-anchor="start" >Report</text><circle cx="2724" cy="746" r="8" fill="#41A66A" stroke="none" stroke-width="0"/><text x="2750" y="758" font-family="Arial, Helvetica, sans-serif" font-size="29" font-weight="600" fill="#21354D" text-anchor="start" >Memory</text><line x1="590" y1="940" x2="642" y2="940" stroke="#3977D3" stroke-width="7" stroke-linecap="round" /><polygon points="642,940 618,925 618,955" fill="#3977D3"/><line x1="1090" y1="940" x2="1142" y2="940" stroke="#1F9D8A" stroke-width="7" stroke-linecap="round" /><polygon points="1142,940 1118,925 1118,955" fill="#1F9D8A"/><line x1="1590" y1="940" x2="1642" y2="940" stroke="#7564D8" stroke-width="7" stroke-linecap="round" /><polygon points="1642,940 1618,925 1618,955" fill="#7564D8"/><line x1="2090" y1="940" x2="2142" y2="940" stroke="#E97968" stroke-width="7" stroke-linecap="round" /><polygon points="2142,940 2118,925 2118,955" fill="#E97968"/><line x1="2590" y1="940" x2="2642" y2="940" stroke="#E9A63A" stroke-width="7" stroke-linecap="round" /><polygon points="2642,940 2618,925 2618,955" fill="#E9A63A"/><rect x="390" y="1535" width="2400" height="92" rx="46" fill="#10243E" stroke="none" stroke-width="0" /><text x="1590" y="1595" font-family="Arial, Helvetica, sans-serif" font-size="34" font-weight="700" fill="#fff" text-anchor="middle" >WorkflowState  •  traces  •  warnings  •  errors  •  provenance</text><line x1="160" y1="1712" x2="3040" y2="1712" stroke="#D9E4EF" stroke-width="3" stroke-linecap="round" /><text x="160" y="1760" font-family="Arial, Helvetica, sans-serif" font-size="26" font-weight="700" fill="#64748B" text-anchor="start" >PROTACXtend architecture</text><text x="3040" y="1760" font-family="Arial, Helvetica, sans-serif" font-size="26" font-weight="800" fill="#64748B" text-anchor="end" >02</text></svg>